# xmcd
#
# Track frame offsets: 
#        150
#        10027
#        28402
#        49087
#        72517
#        91297
#        108320
#        130132
#        152252
#        169295
#        192030
#
# Disc length: 2885 seconds
#
# Revision: 1
# Processed by: cddbd v1.5.2PL0 Copyright (c) Steve Scherf et al.
# Submitted via: ExactAudioCopy v1.0b3
#
DISCID=890b430b
DTITLE=Various Artist - Winter Gift Pops COCA-14666
DYEAR=1997
DGENRE=Japanese Pop
TTITLE0=BOX - 冬の天使たち
TTITLE1=かの香織 - チョコレートのブランケット
TTITLE2=伊豆田洋之 - 12月のエイプリル・フール
TTITLE3=村田和人 - Miss You Baby
TTITLE4=さいとうみわこ - あなただけ I Love You
TTITLE5=杉真理・伊豆田洋之・峠恵子 - 永遠のShangri-la
TTITLE6=高野寛＆かの香織 - first Flight
TTITLE7=長谷川真奈（ゲスト・ヴォーカル：EPO） - 神様のプレゼント
TTITLE8=久保田洋司 with BOX - Jet Lang Xmas Day
TTITLE9=松尾清憲 - Sleeping
TTITLE10=高野寛（ゲスト・ヴォーカル：大貫妙子） - Silent Song
EXTD=YEAR: 1997
EXTT0=
EXTT1=
EXTT2=
EXTT3=
EXTT4=
EXTT5=
EXTT6=
EXTT7=
EXTT8=
EXTT9=
EXTT10=
PLAYORDER=
